G04 #@! TF.GenerationSoftware,KiCad,Pcbnew,(5.1.9-0-10_14)*
G04 #@! TF.CreationDate,2021-04-08T15:49:56-05:00*
G04 #@! TF.ProjectId,LED Helper,4c454420-4865-46c7-9065-722e6b696361,1*
G04 #@! TF.SameCoordinates,Original*
G04 #@! TF.FileFunction,Soldermask,Top*
G04 #@! TF.FilePolarity,Negative*
%FSLAX46Y46*%
G04 Gerber Fmt 4.6, Leading zero omitted, Abs format (unit mm)*
G04 Created by KiCad (PCBNEW (5.1.9-0-10_14)) date 2021-04-08 15:49:56*
%MOMM*%
%LPD*%
G01*
G04 APERTURE LIST*
%ADD10R,1.700000X1.700000*%
%ADD11O,1.700000X1.700000*%
G04 APERTURE END LIST*
G36*
G01*
X124916250Y-84404500D02*
X124003750Y-84404500D01*
G75*
G02*
X123760000Y-84160750I0J243750D01*
G01*
X123760000Y-83673250D01*
G75*
G02*
X124003750Y-83429500I243750J0D01*
G01*
X124916250Y-83429500D01*
G75*
G02*
X125160000Y-83673250I0J-243750D01*
G01*
X125160000Y-84160750D01*
G75*
G02*
X124916250Y-84404500I-243750J0D01*
G01*
G37*
G36*
G01*
X124916250Y-82529500D02*
X124003750Y-82529500D01*
G75*
G02*
X123760000Y-82285750I0J243750D01*
G01*
X123760000Y-81798250D01*
G75*
G02*
X124003750Y-81554500I243750J0D01*
G01*
X124916250Y-81554500D01*
G75*
G02*
X125160000Y-81798250I0J-243750D01*
G01*
X125160000Y-82285750D01*
G75*
G02*
X124916250Y-82529500I-243750J0D01*
G01*
G37*
G36*
G01*
X127456250Y-82529500D02*
X126543750Y-82529500D01*
G75*
G02*
X126300000Y-82285750I0J243750D01*
G01*
X126300000Y-81798250D01*
G75*
G02*
X126543750Y-81554500I243750J0D01*
G01*
X127456250Y-81554500D01*
G75*
G02*
X127700000Y-81798250I0J-243750D01*
G01*
X127700000Y-82285750D01*
G75*
G02*
X127456250Y-82529500I-243750J0D01*
G01*
G37*
G36*
G01*
X127456250Y-84404500D02*
X126543750Y-84404500D01*
G75*
G02*
X126300000Y-84160750I0J243750D01*
G01*
X126300000Y-83673250D01*
G75*
G02*
X126543750Y-83429500I243750J0D01*
G01*
X127456250Y-83429500D01*
G75*
G02*
X127700000Y-83673250I0J-243750D01*
G01*
X127700000Y-84160750D01*
G75*
G02*
X127456250Y-84404500I-243750J0D01*
G01*
G37*
G36*
G01*
X129996250Y-84404500D02*
X129083750Y-84404500D01*
G75*
G02*
X128840000Y-84160750I0J243750D01*
G01*
X128840000Y-83673250D01*
G75*
G02*
X129083750Y-83429500I243750J0D01*
G01*
X129996250Y-83429500D01*
G75*
G02*
X130240000Y-83673250I0J-243750D01*
G01*
X130240000Y-84160750D01*
G75*
G02*
X129996250Y-84404500I-243750J0D01*
G01*
G37*
G36*
G01*
X129996250Y-82529500D02*
X129083750Y-82529500D01*
G75*
G02*
X128840000Y-82285750I0J243750D01*
G01*
X128840000Y-81798250D01*
G75*
G02*
X129083750Y-81554500I243750J0D01*
G01*
X129996250Y-81554500D01*
G75*
G02*
X130240000Y-81798250I0J-243750D01*
G01*
X130240000Y-82285750D01*
G75*
G02*
X129996250Y-82529500I-243750J0D01*
G01*
G37*
G36*
G01*
X132536250Y-82529500D02*
X131623750Y-82529500D01*
G75*
G02*
X131380000Y-82285750I0J243750D01*
G01*
X131380000Y-81798250D01*
G75*
G02*
X131623750Y-81554500I243750J0D01*
G01*
X132536250Y-81554500D01*
G75*
G02*
X132780000Y-81798250I0J-243750D01*
G01*
X132780000Y-82285750D01*
G75*
G02*
X132536250Y-82529500I-243750J0D01*
G01*
G37*
G36*
G01*
X132536250Y-84404500D02*
X131623750Y-84404500D01*
G75*
G02*
X131380000Y-84160750I0J243750D01*
G01*
X131380000Y-83673250D01*
G75*
G02*
X131623750Y-83429500I243750J0D01*
G01*
X132536250Y-83429500D01*
G75*
G02*
X132780000Y-83673250I0J-243750D01*
G01*
X132780000Y-84160750D01*
G75*
G02*
X132536250Y-84404500I-243750J0D01*
G01*
G37*
G36*
G01*
X135076250Y-84404500D02*
X134163750Y-84404500D01*
G75*
G02*
X133920000Y-84160750I0J243750D01*
G01*
X133920000Y-83673250D01*
G75*
G02*
X134163750Y-83429500I243750J0D01*
G01*
X135076250Y-83429500D01*
G75*
G02*
X135320000Y-83673250I0J-243750D01*
G01*
X135320000Y-84160750D01*
G75*
G02*
X135076250Y-84404500I-243750J0D01*
G01*
G37*
G36*
G01*
X135076250Y-82529500D02*
X134163750Y-82529500D01*
G75*
G02*
X133920000Y-82285750I0J243750D01*
G01*
X133920000Y-81798250D01*
G75*
G02*
X134163750Y-81554500I243750J0D01*
G01*
X135076250Y-81554500D01*
G75*
G02*
X135320000Y-81798250I0J-243750D01*
G01*
X135320000Y-82285750D01*
G75*
G02*
X135076250Y-82529500I-243750J0D01*
G01*
G37*
G36*
G01*
X137616250Y-82529500D02*
X136703750Y-82529500D01*
G75*
G02*
X136460000Y-82285750I0J243750D01*
G01*
X136460000Y-81798250D01*
G75*
G02*
X136703750Y-81554500I243750J0D01*
G01*
X137616250Y-81554500D01*
G75*
G02*
X137860000Y-81798250I0J-243750D01*
G01*
X137860000Y-82285750D01*
G75*
G02*
X137616250Y-82529500I-243750J0D01*
G01*
G37*
G36*
G01*
X137616250Y-84404500D02*
X136703750Y-84404500D01*
G75*
G02*
X136460000Y-84160750I0J243750D01*
G01*
X136460000Y-83673250D01*
G75*
G02*
X136703750Y-83429500I243750J0D01*
G01*
X137616250Y-83429500D01*
G75*
G02*
X137860000Y-83673250I0J-243750D01*
G01*
X137860000Y-84160750D01*
G75*
G02*
X137616250Y-84404500I-243750J0D01*
G01*
G37*
G36*
G01*
X140156250Y-84404500D02*
X139243750Y-84404500D01*
G75*
G02*
X139000000Y-84160750I0J243750D01*
G01*
X139000000Y-83673250D01*
G75*
G02*
X139243750Y-83429500I243750J0D01*
G01*
X140156250Y-83429500D01*
G75*
G02*
X140400000Y-83673250I0J-243750D01*
G01*
X140400000Y-84160750D01*
G75*
G02*
X140156250Y-84404500I-243750J0D01*
G01*
G37*
G36*
G01*
X140156250Y-82529500D02*
X139243750Y-82529500D01*
G75*
G02*
X139000000Y-82285750I0J243750D01*
G01*
X139000000Y-81798250D01*
G75*
G02*
X139243750Y-81554500I243750J0D01*
G01*
X140156250Y-81554500D01*
G75*
G02*
X140400000Y-81798250I0J-243750D01*
G01*
X140400000Y-82285750D01*
G75*
G02*
X140156250Y-82529500I-243750J0D01*
G01*
G37*
G36*
G01*
X142696250Y-82529500D02*
X141783750Y-82529500D01*
G75*
G02*
X141540000Y-82285750I0J243750D01*
G01*
X141540000Y-81798250D01*
G75*
G02*
X141783750Y-81554500I243750J0D01*
G01*
X142696250Y-81554500D01*
G75*
G02*
X142940000Y-81798250I0J-243750D01*
G01*
X142940000Y-82285750D01*
G75*
G02*
X142696250Y-82529500I-243750J0D01*
G01*
G37*
G36*
G01*
X142696250Y-84404500D02*
X141783750Y-84404500D01*
G75*
G02*
X141540000Y-84160750I0J243750D01*
G01*
X141540000Y-83673250D01*
G75*
G02*
X141783750Y-83429500I243750J0D01*
G01*
X142696250Y-83429500D01*
G75*
G02*
X142940000Y-83673250I0J-243750D01*
G01*
X142940000Y-84160750D01*
G75*
G02*
X142696250Y-84404500I-243750J0D01*
G01*
G37*
D10*
X124460000Y-78740000D03*
D11*
X127000000Y-78740000D03*
X129540000Y-78740000D03*
X132080000Y-78740000D03*
X134620000Y-78740000D03*
X137160000Y-78740000D03*
X139700000Y-78740000D03*
X142240000Y-78740000D03*
X144780000Y-78740000D03*
X147320000Y-78740000D03*
X147320000Y-91440000D03*
X144780000Y-91440000D03*
X142240000Y-91440000D03*
X139700000Y-91440000D03*
X137160000Y-91440000D03*
X134620000Y-91440000D03*
X132080000Y-91440000D03*
X129540000Y-91440000D03*
X127000000Y-91440000D03*
D10*
X124460000Y-91440000D03*
G36*
G01*
X124009999Y-85847500D02*
X124910001Y-85847500D01*
G75*
G02*
X125160000Y-86097499I0J-249999D01*
G01*
X125160000Y-86622501D01*
G75*
G02*
X124910001Y-86872500I-249999J0D01*
G01*
X124009999Y-86872500D01*
G75*
G02*
X123760000Y-86622501I0J249999D01*
G01*
X123760000Y-86097499D01*
G75*
G02*
X124009999Y-85847500I249999J0D01*
G01*
G37*
G36*
G01*
X124009999Y-87672500D02*
X124910001Y-87672500D01*
G75*
G02*
X125160000Y-87922499I0J-249999D01*
G01*
X125160000Y-88447501D01*
G75*
G02*
X124910001Y-88697500I-249999J0D01*
G01*
X124009999Y-88697500D01*
G75*
G02*
X123760000Y-88447501I0J249999D01*
G01*
X123760000Y-87922499D01*
G75*
G02*
X124009999Y-87672500I249999J0D01*
G01*
G37*
G36*
G01*
X126549999Y-87672500D02*
X127450001Y-87672500D01*
G75*
G02*
X127700000Y-87922499I0J-249999D01*
G01*
X127700000Y-88447501D01*
G75*
G02*
X127450001Y-88697500I-249999J0D01*
G01*
X126549999Y-88697500D01*
G75*
G02*
X126300000Y-88447501I0J249999D01*
G01*
X126300000Y-87922499D01*
G75*
G02*
X126549999Y-87672500I249999J0D01*
G01*
G37*
G36*
G01*
X126549999Y-85847500D02*
X127450001Y-85847500D01*
G75*
G02*
X127700000Y-86097499I0J-249999D01*
G01*
X127700000Y-86622501D01*
G75*
G02*
X127450001Y-86872500I-249999J0D01*
G01*
X126549999Y-86872500D01*
G75*
G02*
X126300000Y-86622501I0J249999D01*
G01*
X126300000Y-86097499D01*
G75*
G02*
X126549999Y-85847500I249999J0D01*
G01*
G37*
G36*
G01*
X129089999Y-85847500D02*
X129990001Y-85847500D01*
G75*
G02*
X130240000Y-86097499I0J-249999D01*
G01*
X130240000Y-86622501D01*
G75*
G02*
X129990001Y-86872500I-249999J0D01*
G01*
X129089999Y-86872500D01*
G75*
G02*
X128840000Y-86622501I0J249999D01*
G01*
X128840000Y-86097499D01*
G75*
G02*
X129089999Y-85847500I249999J0D01*
G01*
G37*
G36*
G01*
X129089999Y-87672500D02*
X129990001Y-87672500D01*
G75*
G02*
X130240000Y-87922499I0J-249999D01*
G01*
X130240000Y-88447501D01*
G75*
G02*
X129990001Y-88697500I-249999J0D01*
G01*
X129089999Y-88697500D01*
G75*
G02*
X128840000Y-88447501I0J249999D01*
G01*
X128840000Y-87922499D01*
G75*
G02*
X129089999Y-87672500I249999J0D01*
G01*
G37*
G36*
G01*
X131629999Y-87672500D02*
X132530001Y-87672500D01*
G75*
G02*
X132780000Y-87922499I0J-249999D01*
G01*
X132780000Y-88447501D01*
G75*
G02*
X132530001Y-88697500I-249999J0D01*
G01*
X131629999Y-88697500D01*
G75*
G02*
X131380000Y-88447501I0J249999D01*
G01*
X131380000Y-87922499D01*
G75*
G02*
X131629999Y-87672500I249999J0D01*
G01*
G37*
G36*
G01*
X131629999Y-85847500D02*
X132530001Y-85847500D01*
G75*
G02*
X132780000Y-86097499I0J-249999D01*
G01*
X132780000Y-86622501D01*
G75*
G02*
X132530001Y-86872500I-249999J0D01*
G01*
X131629999Y-86872500D01*
G75*
G02*
X131380000Y-86622501I0J249999D01*
G01*
X131380000Y-86097499D01*
G75*
G02*
X131629999Y-85847500I249999J0D01*
G01*
G37*
G36*
G01*
X134169999Y-85847500D02*
X135070001Y-85847500D01*
G75*
G02*
X135320000Y-86097499I0J-249999D01*
G01*
X135320000Y-86622501D01*
G75*
G02*
X135070001Y-86872500I-249999J0D01*
G01*
X134169999Y-86872500D01*
G75*
G02*
X133920000Y-86622501I0J249999D01*
G01*
X133920000Y-86097499D01*
G75*
G02*
X134169999Y-85847500I249999J0D01*
G01*
G37*
G36*
G01*
X134169999Y-87672500D02*
X135070001Y-87672500D01*
G75*
G02*
X135320000Y-87922499I0J-249999D01*
G01*
X135320000Y-88447501D01*
G75*
G02*
X135070001Y-88697500I-249999J0D01*
G01*
X134169999Y-88697500D01*
G75*
G02*
X133920000Y-88447501I0J249999D01*
G01*
X133920000Y-87922499D01*
G75*
G02*
X134169999Y-87672500I249999J0D01*
G01*
G37*
G36*
G01*
X136709999Y-87672500D02*
X137610001Y-87672500D01*
G75*
G02*
X137860000Y-87922499I0J-249999D01*
G01*
X137860000Y-88447501D01*
G75*
G02*
X137610001Y-88697500I-249999J0D01*
G01*
X136709999Y-88697500D01*
G75*
G02*
X136460000Y-88447501I0J249999D01*
G01*
X136460000Y-87922499D01*
G75*
G02*
X136709999Y-87672500I249999J0D01*
G01*
G37*
G36*
G01*
X136709999Y-85847500D02*
X137610001Y-85847500D01*
G75*
G02*
X137860000Y-86097499I0J-249999D01*
G01*
X137860000Y-86622501D01*
G75*
G02*
X137610001Y-86872500I-249999J0D01*
G01*
X136709999Y-86872500D01*
G75*
G02*
X136460000Y-86622501I0J249999D01*
G01*
X136460000Y-86097499D01*
G75*
G02*
X136709999Y-85847500I249999J0D01*
G01*
G37*
G36*
G01*
X139249999Y-85847500D02*
X140150001Y-85847500D01*
G75*
G02*
X140400000Y-86097499I0J-249999D01*
G01*
X140400000Y-86622501D01*
G75*
G02*
X140150001Y-86872500I-249999J0D01*
G01*
X139249999Y-86872500D01*
G75*
G02*
X139000000Y-86622501I0J249999D01*
G01*
X139000000Y-86097499D01*
G75*
G02*
X139249999Y-85847500I249999J0D01*
G01*
G37*
G36*
G01*
X139249999Y-87672500D02*
X140150001Y-87672500D01*
G75*
G02*
X140400000Y-87922499I0J-249999D01*
G01*
X140400000Y-88447501D01*
G75*
G02*
X140150001Y-88697500I-249999J0D01*
G01*
X139249999Y-88697500D01*
G75*
G02*
X139000000Y-88447501I0J249999D01*
G01*
X139000000Y-87922499D01*
G75*
G02*
X139249999Y-87672500I249999J0D01*
G01*
G37*
G36*
G01*
X141789999Y-87672500D02*
X142690001Y-87672500D01*
G75*
G02*
X142940000Y-87922499I0J-249999D01*
G01*
X142940000Y-88447501D01*
G75*
G02*
X142690001Y-88697500I-249999J0D01*
G01*
X141789999Y-88697500D01*
G75*
G02*
X141540000Y-88447501I0J249999D01*
G01*
X141540000Y-87922499D01*
G75*
G02*
X141789999Y-87672500I249999J0D01*
G01*
G37*
G36*
G01*
X141789999Y-85847500D02*
X142690001Y-85847500D01*
G75*
G02*
X142940000Y-86097499I0J-249999D01*
G01*
X142940000Y-86622501D01*
G75*
G02*
X142690001Y-86872500I-249999J0D01*
G01*
X141789999Y-86872500D01*
G75*
G02*
X141540000Y-86622501I0J249999D01*
G01*
X141540000Y-86097499D01*
G75*
G02*
X141789999Y-85847500I249999J0D01*
G01*
G37*
M02*
