G04 #@! TF.GenerationSoftware,KiCad,Pcbnew,(5.1.9-0-10_14)*
G04 #@! TF.CreationDate,2021-04-08T17:16:22-05:00*
G04 #@! TF.ProjectId,Power Helper,506f7765-7220-4486-956c-7065722e6b69,1*
G04 #@! TF.SameCoordinates,Original*
G04 #@! TF.FileFunction,Paste,Top*
G04 #@! TF.FilePolarity,Positive*
%FSLAX46Y46*%
G04 Gerber Fmt 4.6, Leading zero omitted, Abs format (unit mm)*
G04 Created by KiCad (PCBNEW (5.1.9-0-10_14)) date 2021-04-08 17:16:22*
%MOMM*%
%LPD*%
G01*
G04 APERTURE LIST*
%ADD10R,0.900000X1.150000*%
%ADD11R,0.800000X1.150000*%
%ADD12R,0.700000X1.150000*%
%ADD13R,0.698500X1.498600*%
%ADD14R,0.998220X0.599440*%
%ADD15R,0.998220X0.797560*%
%ADD16R,1.498600X0.698500*%
%ADD17R,0.599440X0.998220*%
%ADD18R,0.797560X0.998220*%
%ADD19R,2.000000X3.800000*%
%ADD20R,2.000000X1.500000*%
G04 APERTURE END LIST*
G36*
G01*
X122920999Y-97469000D02*
X124221001Y-97469000D01*
G75*
G02*
X124471000Y-97718999I0J-249999D01*
G01*
X124471000Y-98369001D01*
G75*
G02*
X124221001Y-98619000I-249999J0D01*
G01*
X122920999Y-98619000D01*
G75*
G02*
X122671000Y-98369001I0J249999D01*
G01*
X122671000Y-97718999D01*
G75*
G02*
X122920999Y-97469000I249999J0D01*
G01*
G37*
G36*
G01*
X122920999Y-100419000D02*
X124221001Y-100419000D01*
G75*
G02*
X124471000Y-100668999I0J-249999D01*
G01*
X124471000Y-101319001D01*
G75*
G02*
X124221001Y-101569000I-249999J0D01*
G01*
X122920999Y-101569000D01*
G75*
G02*
X122671000Y-101319001I0J249999D01*
G01*
X122671000Y-100668999D01*
G75*
G02*
X122920999Y-100419000I249999J0D01*
G01*
G37*
G36*
G01*
X124221001Y-92142000D02*
X122920999Y-92142000D01*
G75*
G02*
X122671000Y-91892001I0J249999D01*
G01*
X122671000Y-91241999D01*
G75*
G02*
X122920999Y-90992000I249999J0D01*
G01*
X124221001Y-90992000D01*
G75*
G02*
X124471000Y-91241999I0J-249999D01*
G01*
X124471000Y-91892001D01*
G75*
G02*
X124221001Y-92142000I-249999J0D01*
G01*
G37*
G36*
G01*
X124221001Y-95092000D02*
X122920999Y-95092000D01*
G75*
G02*
X122671000Y-94842001I0J249999D01*
G01*
X122671000Y-94191999D01*
G75*
G02*
X122920999Y-93942000I249999J0D01*
G01*
X124221001Y-93942000D01*
G75*
G02*
X124471000Y-94191999I0J-249999D01*
G01*
X124471000Y-94842001D01*
G75*
G02*
X124221001Y-95092000I-249999J0D01*
G01*
G37*
G36*
G01*
X159182750Y-87807500D02*
X160095250Y-87807500D01*
G75*
G02*
X160339000Y-88051250I0J-243750D01*
G01*
X160339000Y-88538750D01*
G75*
G02*
X160095250Y-88782500I-243750J0D01*
G01*
X159182750Y-88782500D01*
G75*
G02*
X158939000Y-88538750I0J243750D01*
G01*
X158939000Y-88051250D01*
G75*
G02*
X159182750Y-87807500I243750J0D01*
G01*
G37*
G36*
G01*
X159182750Y-89682500D02*
X160095250Y-89682500D01*
G75*
G02*
X160339000Y-89926250I0J-243750D01*
G01*
X160339000Y-90413750D01*
G75*
G02*
X160095250Y-90657500I-243750J0D01*
G01*
X159182750Y-90657500D01*
G75*
G02*
X158939000Y-90413750I0J243750D01*
G01*
X158939000Y-89926250D01*
G75*
G02*
X159182750Y-89682500I243750J0D01*
G01*
G37*
D10*
X139954000Y-91948000D03*
X145454000Y-91948000D03*
D11*
X141184000Y-91948000D03*
X144224000Y-91948000D03*
D12*
X143204000Y-91948000D03*
X142204000Y-91948000D03*
G36*
G01*
X139757999Y-94817500D02*
X140658001Y-94817500D01*
G75*
G02*
X140908000Y-95067499I0J-249999D01*
G01*
X140908000Y-95592501D01*
G75*
G02*
X140658001Y-95842500I-249999J0D01*
G01*
X139757999Y-95842500D01*
G75*
G02*
X139508000Y-95592501I0J249999D01*
G01*
X139508000Y-95067499D01*
G75*
G02*
X139757999Y-94817500I249999J0D01*
G01*
G37*
G36*
G01*
X139757999Y-96642500D02*
X140658001Y-96642500D01*
G75*
G02*
X140908000Y-96892499I0J-249999D01*
G01*
X140908000Y-97417501D01*
G75*
G02*
X140658001Y-97667500I-249999J0D01*
G01*
X139757999Y-97667500D01*
G75*
G02*
X139508000Y-97417501I0J249999D01*
G01*
X139508000Y-96892499D01*
G75*
G02*
X139757999Y-96642500I249999J0D01*
G01*
G37*
G36*
G01*
X144710999Y-96562500D02*
X145611001Y-96562500D01*
G75*
G02*
X145861000Y-96812499I0J-249999D01*
G01*
X145861000Y-97337501D01*
G75*
G02*
X145611001Y-97587500I-249999J0D01*
G01*
X144710999Y-97587500D01*
G75*
G02*
X144461000Y-97337501I0J249999D01*
G01*
X144461000Y-96812499D01*
G75*
G02*
X144710999Y-96562500I249999J0D01*
G01*
G37*
G36*
G01*
X144710999Y-94737500D02*
X145611001Y-94737500D01*
G75*
G02*
X145861000Y-94987499I0J-249999D01*
G01*
X145861000Y-95512501D01*
G75*
G02*
X145611001Y-95762500I-249999J0D01*
G01*
X144710999Y-95762500D01*
G75*
G02*
X144461000Y-95512501I0J249999D01*
G01*
X144461000Y-94987499D01*
G75*
G02*
X144710999Y-94737500I249999J0D01*
G01*
G37*
G36*
G01*
X153866001Y-90729500D02*
X152965999Y-90729500D01*
G75*
G02*
X152716000Y-90479501I0J249999D01*
G01*
X152716000Y-89954499D01*
G75*
G02*
X152965999Y-89704500I249999J0D01*
G01*
X153866001Y-89704500D01*
G75*
G02*
X154116000Y-89954499I0J-249999D01*
G01*
X154116000Y-90479501D01*
G75*
G02*
X153866001Y-90729500I-249999J0D01*
G01*
G37*
G36*
G01*
X153866001Y-88904500D02*
X152965999Y-88904500D01*
G75*
G02*
X152716000Y-88654501I0J249999D01*
G01*
X152716000Y-88129499D01*
G75*
G02*
X152965999Y-87879500I249999J0D01*
G01*
X153866001Y-87879500D01*
G75*
G02*
X154116000Y-88129499I0J-249999D01*
G01*
X154116000Y-88654501D01*
G75*
G02*
X153866001Y-88904500I-249999J0D01*
G01*
G37*
D13*
X126390400Y-88900000D03*
X127889000Y-88900000D03*
X130886200Y-88900000D03*
D14*
X124988320Y-86154260D03*
D15*
X124988320Y-88252300D03*
D14*
X132288280Y-86154260D03*
D15*
X132288280Y-88252300D03*
D16*
X119634000Y-100685600D03*
X119634000Y-99187000D03*
X119634000Y-96189800D03*
D17*
X116888260Y-102087680D03*
D18*
X118986300Y-102087680D03*
D17*
X116888260Y-94787720D03*
D18*
X118986300Y-94787720D03*
D16*
X166497000Y-96164400D03*
X166497000Y-97663000D03*
X166497000Y-100660200D03*
D17*
X169242740Y-94762320D03*
D18*
X167144700Y-94762320D03*
D17*
X169242740Y-102062280D03*
D18*
X167144700Y-102062280D03*
D19*
X134874000Y-96012000D03*
D20*
X128574000Y-96012000D03*
X128574000Y-98312000D03*
X128574000Y-93712000D03*
M02*
