M48
; DRILL file {KiCad (5.1.9-0-10_14)} date Thursday, April 08, 2021 at 05:16:31 PM
; FORMAT={-:-/ absolute / inch / decimal}
; #@! TF.CreationDate,2021-04-08T17:16:31-05:00
; #@! TF.GenerationSoftware,Kicad,Pcbnew,(5.1.9-0-10_14)
; #@! TF.FileFunction,Plated,1,2,PTH
FMAT,2
INCH
T1C0.0157
T2C0.0197
T3C0.0394
%
G90
G05
T1
X4.715Y-3.505
X4.78Y-3.905
X4.96Y-3.73
X4.96Y-3.86
X5.895Y-3.745
X6.285Y-3.625
X6.285Y-3.935
X6.39Y-3.74
X6.47Y-3.85
T3
X4.6976Y-4.2
X4.6976Y-4.3
X4.7976Y-4.2
X4.7976Y-4.3
X6.47Y-4.2
X6.47Y-4.3
X6.57Y-4.2
X6.57Y-4.3
T2
G00X5.4482Y-3.4842
M15
G01X5.4482Y-3.4566
M16
G05
G00X5.4482Y-3.6338
M15
G01X5.4482Y-3.6062
M16
G05
G00X5.7883Y-3.4842
M15
G01X5.7883Y-3.4566
M16
G05
G00X5.7883Y-3.6338
M15
G01X5.7883Y-3.6062
M16
G05
T0
M30
