G04 #@! TF.GenerationSoftware,KiCad,Pcbnew,(5.1.9-0-10_14)*
G04 #@! TF.CreationDate,2021-04-08T16:46:49-05:00*
G04 #@! TF.ProjectId,Switch Helper,53776974-6368-4204-9865-6c7065722e6b,1*
G04 #@! TF.SameCoordinates,Original*
G04 #@! TF.FileFunction,Paste,Top*
G04 #@! TF.FilePolarity,Positive*
%FSLAX46Y46*%
G04 Gerber Fmt 4.6, Leading zero omitted, Abs format (unit mm)*
G04 Created by KiCad (PCBNEW (5.1.9-0-10_14)) date 2021-04-08 16:46:49*
%MOMM*%
%LPD*%
G01*
G04 APERTURE LIST*
%ADD10R,0.750000X1.000000*%
%ADD11R,1.100000X1.100000*%
%ADD12R,1.060000X0.650000*%
G04 APERTURE END LIST*
D10*
X137825000Y-88153500D03*
X137825000Y-82153500D03*
X141575000Y-88153500D03*
X141575000Y-82153500D03*
G36*
G01*
X125191500Y-85545000D02*
X126141500Y-85545000D01*
G75*
G02*
X126391500Y-85795000I0J-250000D01*
G01*
X126391500Y-86295000D01*
G75*
G02*
X126141500Y-86545000I-250000J0D01*
G01*
X125191500Y-86545000D01*
G75*
G02*
X124941500Y-86295000I0J250000D01*
G01*
X124941500Y-85795000D01*
G75*
G02*
X125191500Y-85545000I250000J0D01*
G01*
G37*
G36*
G01*
X125191500Y-87445000D02*
X126141500Y-87445000D01*
G75*
G02*
X126391500Y-87695000I0J-250000D01*
G01*
X126391500Y-88195000D01*
G75*
G02*
X126141500Y-88445000I-250000J0D01*
G01*
X125191500Y-88445000D01*
G75*
G02*
X124941500Y-88195000I0J250000D01*
G01*
X124941500Y-87695000D01*
G75*
G02*
X125191500Y-87445000I250000J0D01*
G01*
G37*
D11*
X132397500Y-83248500D03*
X135197500Y-83248500D03*
G36*
G01*
X124916500Y-83698501D02*
X124916500Y-82798499D01*
G75*
G02*
X125166499Y-82548500I249999J0D01*
G01*
X125691501Y-82548500D01*
G75*
G02*
X125941500Y-82798499I0J-249999D01*
G01*
X125941500Y-83698501D01*
G75*
G02*
X125691501Y-83948500I-249999J0D01*
G01*
X125166499Y-83948500D01*
G75*
G02*
X124916500Y-83698501I0J249999D01*
G01*
G37*
G36*
G01*
X126741500Y-83698501D02*
X126741500Y-82798499D01*
G75*
G02*
X126991499Y-82548500I249999J0D01*
G01*
X127516501Y-82548500D01*
G75*
G02*
X127766500Y-82798499I0J-249999D01*
G01*
X127766500Y-83698501D01*
G75*
G02*
X127516501Y-83948500I-249999J0D01*
G01*
X126991499Y-83948500D01*
G75*
G02*
X126741500Y-83698501I0J249999D01*
G01*
G37*
G36*
G01*
X134726000Y-88143501D02*
X134726000Y-87243499D01*
G75*
G02*
X134975999Y-86993500I249999J0D01*
G01*
X135501001Y-86993500D01*
G75*
G02*
X135751000Y-87243499I0J-249999D01*
G01*
X135751000Y-88143501D01*
G75*
G02*
X135501001Y-88393500I-249999J0D01*
G01*
X134975999Y-88393500D01*
G75*
G02*
X134726000Y-88143501I0J249999D01*
G01*
G37*
G36*
G01*
X132901000Y-88143501D02*
X132901000Y-87243499D01*
G75*
G02*
X133150999Y-86993500I249999J0D01*
G01*
X133676001Y-86993500D01*
G75*
G02*
X133926000Y-87243499I0J-249999D01*
G01*
X133926000Y-88143501D01*
G75*
G02*
X133676001Y-88393500I-249999J0D01*
G01*
X133150999Y-88393500D01*
G75*
G02*
X132901000Y-88143501I0J249999D01*
G01*
G37*
D12*
X128567000Y-85918000D03*
X128567000Y-86868000D03*
X128567000Y-87818000D03*
X130767000Y-87818000D03*
X130767000Y-85918000D03*
M02*
