G04 #@! TF.GenerationSoftware,KiCad,Pcbnew,(5.1.9-0-10_14)*
G04 #@! TF.CreationDate,2021-04-08T16:46:49-05:00*
G04 #@! TF.ProjectId,Switch Helper,53776974-6368-4204-9865-6c7065722e6b,1*
G04 #@! TF.SameCoordinates,Original*
G04 #@! TF.FileFunction,Copper,L2,Bot*
G04 #@! TF.FilePolarity,Positive*
%FSLAX46Y46*%
G04 Gerber Fmt 4.6, Leading zero omitted, Abs format (unit mm)*
G04 Created by KiCad (PCBNEW (5.1.9-0-10_14)) date 2021-04-08 16:46:49*
%MOMM*%
%LPD*%
G01*
G04 APERTURE LIST*
G04 #@! TA.AperFunction,ComponentPad*
%ADD10R,1.700000X1.700000*%
G04 #@! TD*
G04 #@! TA.AperFunction,ComponentPad*
%ADD11O,1.700000X1.700000*%
G04 #@! TD*
G04 #@! TA.AperFunction,ViaPad*
%ADD12C,0.800000*%
G04 #@! TD*
G04 #@! TA.AperFunction,Conductor*
%ADD13C,0.250000*%
G04 #@! TD*
G04 #@! TA.AperFunction,Conductor*
%ADD14C,0.254000*%
G04 #@! TD*
G04 #@! TA.AperFunction,Conductor*
%ADD15C,0.100000*%
G04 #@! TD*
G04 APERTURE END LIST*
D10*
X124460000Y-78740000D03*
D11*
X127000000Y-78740000D03*
X129540000Y-78740000D03*
X132080000Y-78740000D03*
X134620000Y-78740000D03*
X137160000Y-78740000D03*
X139700000Y-78740000D03*
X142240000Y-78740000D03*
X144780000Y-78740000D03*
X147320000Y-78740000D03*
X147320000Y-91440000D03*
X144780000Y-91440000D03*
X142240000Y-91440000D03*
X139700000Y-91440000D03*
X137160000Y-91440000D03*
X134620000Y-91440000D03*
X132080000Y-91440000D03*
X129540000Y-91440000D03*
X127000000Y-91440000D03*
D10*
X124460000Y-91440000D03*
D12*
X129857500Y-82677000D03*
X144907000Y-87376000D03*
X132397500Y-85598000D03*
X144780000Y-82740500D03*
D13*
X144780000Y-91440000D02*
X147320000Y-91440000D01*
X142240000Y-78740000D02*
X124460000Y-78740000D01*
X124460000Y-91440000D02*
X142240000Y-91440000D01*
X147320000Y-78740000D02*
X144780000Y-78740000D01*
X132397500Y-85598000D02*
X141160500Y-85598000D01*
X141922500Y-85598000D02*
X144780000Y-82740500D01*
X141160500Y-85598000D02*
X141922500Y-85598000D01*
X144780000Y-82740500D02*
X144780000Y-78740000D01*
D14*
X148757441Y-76624364D02*
X148918501Y-76672992D01*
X149067054Y-76751979D01*
X149197430Y-76858310D01*
X149304674Y-76987946D01*
X149384695Y-77135942D01*
X149434446Y-77296661D01*
X149454001Y-77482716D01*
X149454000Y-92690146D01*
X149435636Y-92877441D01*
X149387008Y-93038503D01*
X149308023Y-93187051D01*
X149201689Y-93317430D01*
X149072054Y-93424674D01*
X148924058Y-93504695D01*
X148763339Y-93554446D01*
X148577293Y-93574000D01*
X123209854Y-93574000D01*
X123022559Y-93555636D01*
X122861497Y-93507008D01*
X122712949Y-93428023D01*
X122582570Y-93321689D01*
X122475326Y-93192054D01*
X122395305Y-93044058D01*
X122345554Y-92883339D01*
X122326000Y-92697293D01*
X122326000Y-90590000D01*
X123227157Y-90590000D01*
X123227157Y-92290000D01*
X123234513Y-92364689D01*
X123256299Y-92436508D01*
X123291678Y-92502696D01*
X123339289Y-92560711D01*
X123397304Y-92608322D01*
X123463492Y-92643701D01*
X123535311Y-92665487D01*
X123610000Y-92672843D01*
X125310000Y-92672843D01*
X125384689Y-92665487D01*
X125456508Y-92643701D01*
X125522696Y-92608322D01*
X125580711Y-92560711D01*
X125628322Y-92502696D01*
X125663701Y-92436508D01*
X125685487Y-92364689D01*
X125692843Y-92290000D01*
X125692843Y-91946000D01*
X125877168Y-91946000D01*
X125909102Y-92023097D01*
X126043820Y-92224717D01*
X126215283Y-92396180D01*
X126416903Y-92530898D01*
X126640931Y-92623693D01*
X126878757Y-92671000D01*
X127121243Y-92671000D01*
X127359069Y-92623693D01*
X127583097Y-92530898D01*
X127784717Y-92396180D01*
X127956180Y-92224717D01*
X128090898Y-92023097D01*
X128122832Y-91946000D01*
X128417168Y-91946000D01*
X128449102Y-92023097D01*
X128583820Y-92224717D01*
X128755283Y-92396180D01*
X128956903Y-92530898D01*
X129180931Y-92623693D01*
X129418757Y-92671000D01*
X129661243Y-92671000D01*
X129899069Y-92623693D01*
X130123097Y-92530898D01*
X130324717Y-92396180D01*
X130496180Y-92224717D01*
X130630898Y-92023097D01*
X130662832Y-91946000D01*
X130957168Y-91946000D01*
X130989102Y-92023097D01*
X131123820Y-92224717D01*
X131295283Y-92396180D01*
X131496903Y-92530898D01*
X131720931Y-92623693D01*
X131958757Y-92671000D01*
X132201243Y-92671000D01*
X132439069Y-92623693D01*
X132663097Y-92530898D01*
X132864717Y-92396180D01*
X133036180Y-92224717D01*
X133170898Y-92023097D01*
X133202832Y-91946000D01*
X133497168Y-91946000D01*
X133529102Y-92023097D01*
X133663820Y-92224717D01*
X133835283Y-92396180D01*
X134036903Y-92530898D01*
X134260931Y-92623693D01*
X134498757Y-92671000D01*
X134741243Y-92671000D01*
X134979069Y-92623693D01*
X135203097Y-92530898D01*
X135404717Y-92396180D01*
X135576180Y-92224717D01*
X135710898Y-92023097D01*
X135742832Y-91946000D01*
X136037168Y-91946000D01*
X136069102Y-92023097D01*
X136203820Y-92224717D01*
X136375283Y-92396180D01*
X136576903Y-92530898D01*
X136800931Y-92623693D01*
X137038757Y-92671000D01*
X137281243Y-92671000D01*
X137519069Y-92623693D01*
X137743097Y-92530898D01*
X137944717Y-92396180D01*
X138116180Y-92224717D01*
X138250898Y-92023097D01*
X138282832Y-91946000D01*
X138577168Y-91946000D01*
X138609102Y-92023097D01*
X138743820Y-92224717D01*
X138915283Y-92396180D01*
X139116903Y-92530898D01*
X139340931Y-92623693D01*
X139578757Y-92671000D01*
X139821243Y-92671000D01*
X140059069Y-92623693D01*
X140283097Y-92530898D01*
X140484717Y-92396180D01*
X140656180Y-92224717D01*
X140790898Y-92023097D01*
X140822832Y-91946000D01*
X141117168Y-91946000D01*
X141149102Y-92023097D01*
X141283820Y-92224717D01*
X141455283Y-92396180D01*
X141656903Y-92530898D01*
X141880931Y-92623693D01*
X142118757Y-92671000D01*
X142361243Y-92671000D01*
X142599069Y-92623693D01*
X142823097Y-92530898D01*
X143024717Y-92396180D01*
X143196180Y-92224717D01*
X143330898Y-92023097D01*
X143378228Y-91908832D01*
X143435843Y-92071252D01*
X143584822Y-92321355D01*
X143779731Y-92537588D01*
X144013080Y-92711641D01*
X144275901Y-92836825D01*
X144423110Y-92881476D01*
X144653000Y-92760155D01*
X144653000Y-91567000D01*
X144907000Y-91567000D01*
X144907000Y-92760155D01*
X145136890Y-92881476D01*
X145284099Y-92836825D01*
X145546920Y-92711641D01*
X145780269Y-92537588D01*
X145975178Y-92321355D01*
X146050000Y-92195745D01*
X146124822Y-92321355D01*
X146319731Y-92537588D01*
X146553080Y-92711641D01*
X146815901Y-92836825D01*
X146963110Y-92881476D01*
X147193000Y-92760155D01*
X147193000Y-91567000D01*
X147447000Y-91567000D01*
X147447000Y-92760155D01*
X147676890Y-92881476D01*
X147824099Y-92836825D01*
X148086920Y-92711641D01*
X148320269Y-92537588D01*
X148515178Y-92321355D01*
X148664157Y-92071252D01*
X148761481Y-91796891D01*
X148640814Y-91567000D01*
X147447000Y-91567000D01*
X147193000Y-91567000D01*
X144907000Y-91567000D01*
X144653000Y-91567000D01*
X144633000Y-91567000D01*
X144633000Y-91313000D01*
X144653000Y-91313000D01*
X144653000Y-90119845D01*
X144907000Y-90119845D01*
X144907000Y-91313000D01*
X147193000Y-91313000D01*
X147193000Y-90119845D01*
X147447000Y-90119845D01*
X147447000Y-91313000D01*
X148640814Y-91313000D01*
X148761481Y-91083109D01*
X148664157Y-90808748D01*
X148515178Y-90558645D01*
X148320269Y-90342412D01*
X148086920Y-90168359D01*
X147824099Y-90043175D01*
X147676890Y-89998524D01*
X147447000Y-90119845D01*
X147193000Y-90119845D01*
X146963110Y-89998524D01*
X146815901Y-90043175D01*
X146553080Y-90168359D01*
X146319731Y-90342412D01*
X146124822Y-90558645D01*
X146050000Y-90684255D01*
X145975178Y-90558645D01*
X145780269Y-90342412D01*
X145546920Y-90168359D01*
X145284099Y-90043175D01*
X145136890Y-89998524D01*
X144907000Y-90119845D01*
X144653000Y-90119845D01*
X144423110Y-89998524D01*
X144275901Y-90043175D01*
X144013080Y-90168359D01*
X143779731Y-90342412D01*
X143584822Y-90558645D01*
X143435843Y-90808748D01*
X143378228Y-90971168D01*
X143330898Y-90856903D01*
X143196180Y-90655283D01*
X143024717Y-90483820D01*
X142823097Y-90349102D01*
X142599069Y-90256307D01*
X142361243Y-90209000D01*
X142118757Y-90209000D01*
X141880931Y-90256307D01*
X141656903Y-90349102D01*
X141455283Y-90483820D01*
X141283820Y-90655283D01*
X141149102Y-90856903D01*
X141117168Y-90934000D01*
X140822832Y-90934000D01*
X140790898Y-90856903D01*
X140656180Y-90655283D01*
X140484717Y-90483820D01*
X140283097Y-90349102D01*
X140059069Y-90256307D01*
X139821243Y-90209000D01*
X139578757Y-90209000D01*
X139340931Y-90256307D01*
X139116903Y-90349102D01*
X138915283Y-90483820D01*
X138743820Y-90655283D01*
X138609102Y-90856903D01*
X138577168Y-90934000D01*
X138282832Y-90934000D01*
X138250898Y-90856903D01*
X138116180Y-90655283D01*
X137944717Y-90483820D01*
X137743097Y-90349102D01*
X137519069Y-90256307D01*
X137281243Y-90209000D01*
X137038757Y-90209000D01*
X136800931Y-90256307D01*
X136576903Y-90349102D01*
X136375283Y-90483820D01*
X136203820Y-90655283D01*
X136069102Y-90856903D01*
X136037168Y-90934000D01*
X135742832Y-90934000D01*
X135710898Y-90856903D01*
X135576180Y-90655283D01*
X135404717Y-90483820D01*
X135203097Y-90349102D01*
X134979069Y-90256307D01*
X134741243Y-90209000D01*
X134498757Y-90209000D01*
X134260931Y-90256307D01*
X134036903Y-90349102D01*
X133835283Y-90483820D01*
X133663820Y-90655283D01*
X133529102Y-90856903D01*
X133497168Y-90934000D01*
X133202832Y-90934000D01*
X133170898Y-90856903D01*
X133036180Y-90655283D01*
X132864717Y-90483820D01*
X132663097Y-90349102D01*
X132439069Y-90256307D01*
X132201243Y-90209000D01*
X131958757Y-90209000D01*
X131720931Y-90256307D01*
X131496903Y-90349102D01*
X131295283Y-90483820D01*
X131123820Y-90655283D01*
X130989102Y-90856903D01*
X130957168Y-90934000D01*
X130662832Y-90934000D01*
X130630898Y-90856903D01*
X130496180Y-90655283D01*
X130324717Y-90483820D01*
X130123097Y-90349102D01*
X129899069Y-90256307D01*
X129661243Y-90209000D01*
X129418757Y-90209000D01*
X129180931Y-90256307D01*
X128956903Y-90349102D01*
X128755283Y-90483820D01*
X128583820Y-90655283D01*
X128449102Y-90856903D01*
X128417168Y-90934000D01*
X128122832Y-90934000D01*
X128090898Y-90856903D01*
X127956180Y-90655283D01*
X127784717Y-90483820D01*
X127583097Y-90349102D01*
X127359069Y-90256307D01*
X127121243Y-90209000D01*
X126878757Y-90209000D01*
X126640931Y-90256307D01*
X126416903Y-90349102D01*
X126215283Y-90483820D01*
X126043820Y-90655283D01*
X125909102Y-90856903D01*
X125877168Y-90934000D01*
X125692843Y-90934000D01*
X125692843Y-90590000D01*
X125685487Y-90515311D01*
X125663701Y-90443492D01*
X125628322Y-90377304D01*
X125580711Y-90319289D01*
X125522696Y-90271678D01*
X125456508Y-90236299D01*
X125384689Y-90214513D01*
X125310000Y-90207157D01*
X123610000Y-90207157D01*
X123535311Y-90214513D01*
X123463492Y-90236299D01*
X123397304Y-90271678D01*
X123339289Y-90319289D01*
X123291678Y-90377304D01*
X123256299Y-90443492D01*
X123234513Y-90515311D01*
X123227157Y-90590000D01*
X122326000Y-90590000D01*
X122326000Y-85521078D01*
X131616500Y-85521078D01*
X131616500Y-85674922D01*
X131646513Y-85825809D01*
X131705387Y-85967942D01*
X131790858Y-86095859D01*
X131899641Y-86204642D01*
X132027558Y-86290113D01*
X132169691Y-86348987D01*
X132320578Y-86379000D01*
X132474422Y-86379000D01*
X132625309Y-86348987D01*
X132767442Y-86290113D01*
X132895359Y-86204642D01*
X132996001Y-86104000D01*
X141897654Y-86104000D01*
X141922500Y-86106447D01*
X141947346Y-86104000D01*
X141947354Y-86104000D01*
X142021693Y-86096678D01*
X142117075Y-86067745D01*
X142204979Y-86020759D01*
X142282027Y-85957527D01*
X142297876Y-85938215D01*
X144714592Y-83521500D01*
X144856922Y-83521500D01*
X145007809Y-83491487D01*
X145149942Y-83432613D01*
X145277859Y-83347142D01*
X145386642Y-83238359D01*
X145472113Y-83110442D01*
X145530987Y-82968309D01*
X145561000Y-82817422D01*
X145561000Y-82663578D01*
X145530987Y-82512691D01*
X145472113Y-82370558D01*
X145386642Y-82242641D01*
X145286000Y-82141999D01*
X145286000Y-79862832D01*
X145363097Y-79830898D01*
X145564717Y-79696180D01*
X145736180Y-79524717D01*
X145870898Y-79323097D01*
X145902832Y-79246000D01*
X146197168Y-79246000D01*
X146229102Y-79323097D01*
X146363820Y-79524717D01*
X146535283Y-79696180D01*
X146736903Y-79830898D01*
X146960931Y-79923693D01*
X147198757Y-79971000D01*
X147441243Y-79971000D01*
X147679069Y-79923693D01*
X147903097Y-79830898D01*
X148104717Y-79696180D01*
X148276180Y-79524717D01*
X148410898Y-79323097D01*
X148503693Y-79099069D01*
X148551000Y-78861243D01*
X148551000Y-78618757D01*
X148503693Y-78380931D01*
X148410898Y-78156903D01*
X148276180Y-77955283D01*
X148104717Y-77783820D01*
X147903097Y-77649102D01*
X147679069Y-77556307D01*
X147441243Y-77509000D01*
X147198757Y-77509000D01*
X146960931Y-77556307D01*
X146736903Y-77649102D01*
X146535283Y-77783820D01*
X146363820Y-77955283D01*
X146229102Y-78156903D01*
X146197168Y-78234000D01*
X145902832Y-78234000D01*
X145870898Y-78156903D01*
X145736180Y-77955283D01*
X145564717Y-77783820D01*
X145363097Y-77649102D01*
X145139069Y-77556307D01*
X144901243Y-77509000D01*
X144658757Y-77509000D01*
X144420931Y-77556307D01*
X144196903Y-77649102D01*
X143995283Y-77783820D01*
X143823820Y-77955283D01*
X143689102Y-78156903D01*
X143596307Y-78380931D01*
X143549000Y-78618757D01*
X143549000Y-78861243D01*
X143596307Y-79099069D01*
X143689102Y-79323097D01*
X143823820Y-79524717D01*
X143995283Y-79696180D01*
X144196903Y-79830898D01*
X144274001Y-79862833D01*
X144274000Y-82141999D01*
X144173358Y-82242641D01*
X144087887Y-82370558D01*
X144029013Y-82512691D01*
X143999000Y-82663578D01*
X143999000Y-82805908D01*
X141712909Y-85092000D01*
X132996001Y-85092000D01*
X132895359Y-84991358D01*
X132767442Y-84905887D01*
X132625309Y-84847013D01*
X132474422Y-84817000D01*
X132320578Y-84817000D01*
X132169691Y-84847013D01*
X132027558Y-84905887D01*
X131899641Y-84991358D01*
X131790858Y-85100141D01*
X131705387Y-85228058D01*
X131646513Y-85370191D01*
X131616500Y-85521078D01*
X122326000Y-85521078D01*
X122326000Y-77890000D01*
X123227157Y-77890000D01*
X123227157Y-79590000D01*
X123234513Y-79664689D01*
X123256299Y-79736508D01*
X123291678Y-79802696D01*
X123339289Y-79860711D01*
X123397304Y-79908322D01*
X123463492Y-79943701D01*
X123535311Y-79965487D01*
X123610000Y-79972843D01*
X125310000Y-79972843D01*
X125384689Y-79965487D01*
X125456508Y-79943701D01*
X125522696Y-79908322D01*
X125580711Y-79860711D01*
X125628322Y-79802696D01*
X125663701Y-79736508D01*
X125685487Y-79664689D01*
X125692843Y-79590000D01*
X125692843Y-79246000D01*
X125877168Y-79246000D01*
X125909102Y-79323097D01*
X126043820Y-79524717D01*
X126215283Y-79696180D01*
X126416903Y-79830898D01*
X126640931Y-79923693D01*
X126878757Y-79971000D01*
X127121243Y-79971000D01*
X127359069Y-79923693D01*
X127583097Y-79830898D01*
X127784717Y-79696180D01*
X127956180Y-79524717D01*
X128090898Y-79323097D01*
X128122832Y-79246000D01*
X128417168Y-79246000D01*
X128449102Y-79323097D01*
X128583820Y-79524717D01*
X128755283Y-79696180D01*
X128956903Y-79830898D01*
X129180931Y-79923693D01*
X129418757Y-79971000D01*
X129661243Y-79971000D01*
X129899069Y-79923693D01*
X130123097Y-79830898D01*
X130324717Y-79696180D01*
X130496180Y-79524717D01*
X130630898Y-79323097D01*
X130662832Y-79246000D01*
X130957168Y-79246000D01*
X130989102Y-79323097D01*
X131123820Y-79524717D01*
X131295283Y-79696180D01*
X131496903Y-79830898D01*
X131720931Y-79923693D01*
X131958757Y-79971000D01*
X132201243Y-79971000D01*
X132439069Y-79923693D01*
X132663097Y-79830898D01*
X132864717Y-79696180D01*
X133036180Y-79524717D01*
X133170898Y-79323097D01*
X133202832Y-79246000D01*
X133497168Y-79246000D01*
X133529102Y-79323097D01*
X133663820Y-79524717D01*
X133835283Y-79696180D01*
X134036903Y-79830898D01*
X134260931Y-79923693D01*
X134498757Y-79971000D01*
X134741243Y-79971000D01*
X134979069Y-79923693D01*
X135203097Y-79830898D01*
X135404717Y-79696180D01*
X135576180Y-79524717D01*
X135710898Y-79323097D01*
X135742832Y-79246000D01*
X136037168Y-79246000D01*
X136069102Y-79323097D01*
X136203820Y-79524717D01*
X136375283Y-79696180D01*
X136576903Y-79830898D01*
X136800931Y-79923693D01*
X137038757Y-79971000D01*
X137281243Y-79971000D01*
X137519069Y-79923693D01*
X137743097Y-79830898D01*
X137944717Y-79696180D01*
X138116180Y-79524717D01*
X138250898Y-79323097D01*
X138282832Y-79246000D01*
X138577168Y-79246000D01*
X138609102Y-79323097D01*
X138743820Y-79524717D01*
X138915283Y-79696180D01*
X139116903Y-79830898D01*
X139340931Y-79923693D01*
X139578757Y-79971000D01*
X139821243Y-79971000D01*
X140059069Y-79923693D01*
X140283097Y-79830898D01*
X140484717Y-79696180D01*
X140656180Y-79524717D01*
X140790898Y-79323097D01*
X140822832Y-79246000D01*
X141117168Y-79246000D01*
X141149102Y-79323097D01*
X141283820Y-79524717D01*
X141455283Y-79696180D01*
X141656903Y-79830898D01*
X141880931Y-79923693D01*
X142118757Y-79971000D01*
X142361243Y-79971000D01*
X142599069Y-79923693D01*
X142823097Y-79830898D01*
X143024717Y-79696180D01*
X143196180Y-79524717D01*
X143330898Y-79323097D01*
X143423693Y-79099069D01*
X143471000Y-78861243D01*
X143471000Y-78618757D01*
X143423693Y-78380931D01*
X143330898Y-78156903D01*
X143196180Y-77955283D01*
X143024717Y-77783820D01*
X142823097Y-77649102D01*
X142599069Y-77556307D01*
X142361243Y-77509000D01*
X142118757Y-77509000D01*
X141880931Y-77556307D01*
X141656903Y-77649102D01*
X141455283Y-77783820D01*
X141283820Y-77955283D01*
X141149102Y-78156903D01*
X141117168Y-78234000D01*
X140822832Y-78234000D01*
X140790898Y-78156903D01*
X140656180Y-77955283D01*
X140484717Y-77783820D01*
X140283097Y-77649102D01*
X140059069Y-77556307D01*
X139821243Y-77509000D01*
X139578757Y-77509000D01*
X139340931Y-77556307D01*
X139116903Y-77649102D01*
X138915283Y-77783820D01*
X138743820Y-77955283D01*
X138609102Y-78156903D01*
X138577168Y-78234000D01*
X138282832Y-78234000D01*
X138250898Y-78156903D01*
X138116180Y-77955283D01*
X137944717Y-77783820D01*
X137743097Y-77649102D01*
X137519069Y-77556307D01*
X137281243Y-77509000D01*
X137038757Y-77509000D01*
X136800931Y-77556307D01*
X136576903Y-77649102D01*
X136375283Y-77783820D01*
X136203820Y-77955283D01*
X136069102Y-78156903D01*
X136037168Y-78234000D01*
X135742832Y-78234000D01*
X135710898Y-78156903D01*
X135576180Y-77955283D01*
X135404717Y-77783820D01*
X135203097Y-77649102D01*
X134979069Y-77556307D01*
X134741243Y-77509000D01*
X134498757Y-77509000D01*
X134260931Y-77556307D01*
X134036903Y-77649102D01*
X133835283Y-77783820D01*
X133663820Y-77955283D01*
X133529102Y-78156903D01*
X133497168Y-78234000D01*
X133202832Y-78234000D01*
X133170898Y-78156903D01*
X133036180Y-77955283D01*
X132864717Y-77783820D01*
X132663097Y-77649102D01*
X132439069Y-77556307D01*
X132201243Y-77509000D01*
X131958757Y-77509000D01*
X131720931Y-77556307D01*
X131496903Y-77649102D01*
X131295283Y-77783820D01*
X131123820Y-77955283D01*
X130989102Y-78156903D01*
X130957168Y-78234000D01*
X130662832Y-78234000D01*
X130630898Y-78156903D01*
X130496180Y-77955283D01*
X130324717Y-77783820D01*
X130123097Y-77649102D01*
X129899069Y-77556307D01*
X129661243Y-77509000D01*
X129418757Y-77509000D01*
X129180931Y-77556307D01*
X128956903Y-77649102D01*
X128755283Y-77783820D01*
X128583820Y-77955283D01*
X128449102Y-78156903D01*
X128417168Y-78234000D01*
X128122832Y-78234000D01*
X128090898Y-78156903D01*
X127956180Y-77955283D01*
X127784717Y-77783820D01*
X127583097Y-77649102D01*
X127359069Y-77556307D01*
X127121243Y-77509000D01*
X126878757Y-77509000D01*
X126640931Y-77556307D01*
X126416903Y-77649102D01*
X126215283Y-77783820D01*
X126043820Y-77955283D01*
X125909102Y-78156903D01*
X125877168Y-78234000D01*
X125692843Y-78234000D01*
X125692843Y-77890000D01*
X125685487Y-77815311D01*
X125663701Y-77743492D01*
X125628322Y-77677304D01*
X125580711Y-77619289D01*
X125522696Y-77571678D01*
X125456508Y-77536299D01*
X125384689Y-77514513D01*
X125310000Y-77507157D01*
X123610000Y-77507157D01*
X123535311Y-77514513D01*
X123463492Y-77536299D01*
X123397304Y-77571678D01*
X123339289Y-77619289D01*
X123291678Y-77677304D01*
X123256299Y-77743492D01*
X123234513Y-77815311D01*
X123227157Y-77890000D01*
X122326000Y-77890000D01*
X122326000Y-77489854D01*
X122344364Y-77302559D01*
X122392992Y-77141499D01*
X122471979Y-76992946D01*
X122578310Y-76862570D01*
X122707946Y-76755326D01*
X122855942Y-76675305D01*
X123016661Y-76625554D01*
X123202707Y-76606000D01*
X148570146Y-76606000D01*
X148757441Y-76624364D01*
G04 #@! TA.AperFunction,Conductor*
D15*
G36*
X148757441Y-76624364D02*
G01*
X148918501Y-76672992D01*
X149067054Y-76751979D01*
X149197430Y-76858310D01*
X149304674Y-76987946D01*
X149384695Y-77135942D01*
X149434446Y-77296661D01*
X149454001Y-77482716D01*
X149454000Y-92690146D01*
X149435636Y-92877441D01*
X149387008Y-93038503D01*
X149308023Y-93187051D01*
X149201689Y-93317430D01*
X149072054Y-93424674D01*
X148924058Y-93504695D01*
X148763339Y-93554446D01*
X148577293Y-93574000D01*
X123209854Y-93574000D01*
X123022559Y-93555636D01*
X122861497Y-93507008D01*
X122712949Y-93428023D01*
X122582570Y-93321689D01*
X122475326Y-93192054D01*
X122395305Y-93044058D01*
X122345554Y-92883339D01*
X122326000Y-92697293D01*
X122326000Y-90590000D01*
X123227157Y-90590000D01*
X123227157Y-92290000D01*
X123234513Y-92364689D01*
X123256299Y-92436508D01*
X123291678Y-92502696D01*
X123339289Y-92560711D01*
X123397304Y-92608322D01*
X123463492Y-92643701D01*
X123535311Y-92665487D01*
X123610000Y-92672843D01*
X125310000Y-92672843D01*
X125384689Y-92665487D01*
X125456508Y-92643701D01*
X125522696Y-92608322D01*
X125580711Y-92560711D01*
X125628322Y-92502696D01*
X125663701Y-92436508D01*
X125685487Y-92364689D01*
X125692843Y-92290000D01*
X125692843Y-91946000D01*
X125877168Y-91946000D01*
X125909102Y-92023097D01*
X126043820Y-92224717D01*
X126215283Y-92396180D01*
X126416903Y-92530898D01*
X126640931Y-92623693D01*
X126878757Y-92671000D01*
X127121243Y-92671000D01*
X127359069Y-92623693D01*
X127583097Y-92530898D01*
X127784717Y-92396180D01*
X127956180Y-92224717D01*
X128090898Y-92023097D01*
X128122832Y-91946000D01*
X128417168Y-91946000D01*
X128449102Y-92023097D01*
X128583820Y-92224717D01*
X128755283Y-92396180D01*
X128956903Y-92530898D01*
X129180931Y-92623693D01*
X129418757Y-92671000D01*
X129661243Y-92671000D01*
X129899069Y-92623693D01*
X130123097Y-92530898D01*
X130324717Y-92396180D01*
X130496180Y-92224717D01*
X130630898Y-92023097D01*
X130662832Y-91946000D01*
X130957168Y-91946000D01*
X130989102Y-92023097D01*
X131123820Y-92224717D01*
X131295283Y-92396180D01*
X131496903Y-92530898D01*
X131720931Y-92623693D01*
X131958757Y-92671000D01*
X132201243Y-92671000D01*
X132439069Y-92623693D01*
X132663097Y-92530898D01*
X132864717Y-92396180D01*
X133036180Y-92224717D01*
X133170898Y-92023097D01*
X133202832Y-91946000D01*
X133497168Y-91946000D01*
X133529102Y-92023097D01*
X133663820Y-92224717D01*
X133835283Y-92396180D01*
X134036903Y-92530898D01*
X134260931Y-92623693D01*
X134498757Y-92671000D01*
X134741243Y-92671000D01*
X134979069Y-92623693D01*
X135203097Y-92530898D01*
X135404717Y-92396180D01*
X135576180Y-92224717D01*
X135710898Y-92023097D01*
X135742832Y-91946000D01*
X136037168Y-91946000D01*
X136069102Y-92023097D01*
X136203820Y-92224717D01*
X136375283Y-92396180D01*
X136576903Y-92530898D01*
X136800931Y-92623693D01*
X137038757Y-92671000D01*
X137281243Y-92671000D01*
X137519069Y-92623693D01*
X137743097Y-92530898D01*
X137944717Y-92396180D01*
X138116180Y-92224717D01*
X138250898Y-92023097D01*
X138282832Y-91946000D01*
X138577168Y-91946000D01*
X138609102Y-92023097D01*
X138743820Y-92224717D01*
X138915283Y-92396180D01*
X139116903Y-92530898D01*
X139340931Y-92623693D01*
X139578757Y-92671000D01*
X139821243Y-92671000D01*
X140059069Y-92623693D01*
X140283097Y-92530898D01*
X140484717Y-92396180D01*
X140656180Y-92224717D01*
X140790898Y-92023097D01*
X140822832Y-91946000D01*
X141117168Y-91946000D01*
X141149102Y-92023097D01*
X141283820Y-92224717D01*
X141455283Y-92396180D01*
X141656903Y-92530898D01*
X141880931Y-92623693D01*
X142118757Y-92671000D01*
X142361243Y-92671000D01*
X142599069Y-92623693D01*
X142823097Y-92530898D01*
X143024717Y-92396180D01*
X143196180Y-92224717D01*
X143330898Y-92023097D01*
X143378228Y-91908832D01*
X143435843Y-92071252D01*
X143584822Y-92321355D01*
X143779731Y-92537588D01*
X144013080Y-92711641D01*
X144275901Y-92836825D01*
X144423110Y-92881476D01*
X144653000Y-92760155D01*
X144653000Y-91567000D01*
X144907000Y-91567000D01*
X144907000Y-92760155D01*
X145136890Y-92881476D01*
X145284099Y-92836825D01*
X145546920Y-92711641D01*
X145780269Y-92537588D01*
X145975178Y-92321355D01*
X146050000Y-92195745D01*
X146124822Y-92321355D01*
X146319731Y-92537588D01*
X146553080Y-92711641D01*
X146815901Y-92836825D01*
X146963110Y-92881476D01*
X147193000Y-92760155D01*
X147193000Y-91567000D01*
X147447000Y-91567000D01*
X147447000Y-92760155D01*
X147676890Y-92881476D01*
X147824099Y-92836825D01*
X148086920Y-92711641D01*
X148320269Y-92537588D01*
X148515178Y-92321355D01*
X148664157Y-92071252D01*
X148761481Y-91796891D01*
X148640814Y-91567000D01*
X147447000Y-91567000D01*
X147193000Y-91567000D01*
X144907000Y-91567000D01*
X144653000Y-91567000D01*
X144633000Y-91567000D01*
X144633000Y-91313000D01*
X144653000Y-91313000D01*
X144653000Y-90119845D01*
X144907000Y-90119845D01*
X144907000Y-91313000D01*
X147193000Y-91313000D01*
X147193000Y-90119845D01*
X147447000Y-90119845D01*
X147447000Y-91313000D01*
X148640814Y-91313000D01*
X148761481Y-91083109D01*
X148664157Y-90808748D01*
X148515178Y-90558645D01*
X148320269Y-90342412D01*
X148086920Y-90168359D01*
X147824099Y-90043175D01*
X147676890Y-89998524D01*
X147447000Y-90119845D01*
X147193000Y-90119845D01*
X146963110Y-89998524D01*
X146815901Y-90043175D01*
X146553080Y-90168359D01*
X146319731Y-90342412D01*
X146124822Y-90558645D01*
X146050000Y-90684255D01*
X145975178Y-90558645D01*
X145780269Y-90342412D01*
X145546920Y-90168359D01*
X145284099Y-90043175D01*
X145136890Y-89998524D01*
X144907000Y-90119845D01*
X144653000Y-90119845D01*
X144423110Y-89998524D01*
X144275901Y-90043175D01*
X144013080Y-90168359D01*
X143779731Y-90342412D01*
X143584822Y-90558645D01*
X143435843Y-90808748D01*
X143378228Y-90971168D01*
X143330898Y-90856903D01*
X143196180Y-90655283D01*
X143024717Y-90483820D01*
X142823097Y-90349102D01*
X142599069Y-90256307D01*
X142361243Y-90209000D01*
X142118757Y-90209000D01*
X141880931Y-90256307D01*
X141656903Y-90349102D01*
X141455283Y-90483820D01*
X141283820Y-90655283D01*
X141149102Y-90856903D01*
X141117168Y-90934000D01*
X140822832Y-90934000D01*
X140790898Y-90856903D01*
X140656180Y-90655283D01*
X140484717Y-90483820D01*
X140283097Y-90349102D01*
X140059069Y-90256307D01*
X139821243Y-90209000D01*
X139578757Y-90209000D01*
X139340931Y-90256307D01*
X139116903Y-90349102D01*
X138915283Y-90483820D01*
X138743820Y-90655283D01*
X138609102Y-90856903D01*
X138577168Y-90934000D01*
X138282832Y-90934000D01*
X138250898Y-90856903D01*
X138116180Y-90655283D01*
X137944717Y-90483820D01*
X137743097Y-90349102D01*
X137519069Y-90256307D01*
X137281243Y-90209000D01*
X137038757Y-90209000D01*
X136800931Y-90256307D01*
X136576903Y-90349102D01*
X136375283Y-90483820D01*
X136203820Y-90655283D01*
X136069102Y-90856903D01*
X136037168Y-90934000D01*
X135742832Y-90934000D01*
X135710898Y-90856903D01*
X135576180Y-90655283D01*
X135404717Y-90483820D01*
X135203097Y-90349102D01*
X134979069Y-90256307D01*
X134741243Y-90209000D01*
X134498757Y-90209000D01*
X134260931Y-90256307D01*
X134036903Y-90349102D01*
X133835283Y-90483820D01*
X133663820Y-90655283D01*
X133529102Y-90856903D01*
X133497168Y-90934000D01*
X133202832Y-90934000D01*
X133170898Y-90856903D01*
X133036180Y-90655283D01*
X132864717Y-90483820D01*
X132663097Y-90349102D01*
X132439069Y-90256307D01*
X132201243Y-90209000D01*
X131958757Y-90209000D01*
X131720931Y-90256307D01*
X131496903Y-90349102D01*
X131295283Y-90483820D01*
X131123820Y-90655283D01*
X130989102Y-90856903D01*
X130957168Y-90934000D01*
X130662832Y-90934000D01*
X130630898Y-90856903D01*
X130496180Y-90655283D01*
X130324717Y-90483820D01*
X130123097Y-90349102D01*
X129899069Y-90256307D01*
X129661243Y-90209000D01*
X129418757Y-90209000D01*
X129180931Y-90256307D01*
X128956903Y-90349102D01*
X128755283Y-90483820D01*
X128583820Y-90655283D01*
X128449102Y-90856903D01*
X128417168Y-90934000D01*
X128122832Y-90934000D01*
X128090898Y-90856903D01*
X127956180Y-90655283D01*
X127784717Y-90483820D01*
X127583097Y-90349102D01*
X127359069Y-90256307D01*
X127121243Y-90209000D01*
X126878757Y-90209000D01*
X126640931Y-90256307D01*
X126416903Y-90349102D01*
X126215283Y-90483820D01*
X126043820Y-90655283D01*
X125909102Y-90856903D01*
X125877168Y-90934000D01*
X125692843Y-90934000D01*
X125692843Y-90590000D01*
X125685487Y-90515311D01*
X125663701Y-90443492D01*
X125628322Y-90377304D01*
X125580711Y-90319289D01*
X125522696Y-90271678D01*
X125456508Y-90236299D01*
X125384689Y-90214513D01*
X125310000Y-90207157D01*
X123610000Y-90207157D01*
X123535311Y-90214513D01*
X123463492Y-90236299D01*
X123397304Y-90271678D01*
X123339289Y-90319289D01*
X123291678Y-90377304D01*
X123256299Y-90443492D01*
X123234513Y-90515311D01*
X123227157Y-90590000D01*
X122326000Y-90590000D01*
X122326000Y-85521078D01*
X131616500Y-85521078D01*
X131616500Y-85674922D01*
X131646513Y-85825809D01*
X131705387Y-85967942D01*
X131790858Y-86095859D01*
X131899641Y-86204642D01*
X132027558Y-86290113D01*
X132169691Y-86348987D01*
X132320578Y-86379000D01*
X132474422Y-86379000D01*
X132625309Y-86348987D01*
X132767442Y-86290113D01*
X132895359Y-86204642D01*
X132996001Y-86104000D01*
X141897654Y-86104000D01*
X141922500Y-86106447D01*
X141947346Y-86104000D01*
X141947354Y-86104000D01*
X142021693Y-86096678D01*
X142117075Y-86067745D01*
X142204979Y-86020759D01*
X142282027Y-85957527D01*
X142297876Y-85938215D01*
X144714592Y-83521500D01*
X144856922Y-83521500D01*
X145007809Y-83491487D01*
X145149942Y-83432613D01*
X145277859Y-83347142D01*
X145386642Y-83238359D01*
X145472113Y-83110442D01*
X145530987Y-82968309D01*
X145561000Y-82817422D01*
X145561000Y-82663578D01*
X145530987Y-82512691D01*
X145472113Y-82370558D01*
X145386642Y-82242641D01*
X145286000Y-82141999D01*
X145286000Y-79862832D01*
X145363097Y-79830898D01*
X145564717Y-79696180D01*
X145736180Y-79524717D01*
X145870898Y-79323097D01*
X145902832Y-79246000D01*
X146197168Y-79246000D01*
X146229102Y-79323097D01*
X146363820Y-79524717D01*
X146535283Y-79696180D01*
X146736903Y-79830898D01*
X146960931Y-79923693D01*
X147198757Y-79971000D01*
X147441243Y-79971000D01*
X147679069Y-79923693D01*
X147903097Y-79830898D01*
X148104717Y-79696180D01*
X148276180Y-79524717D01*
X148410898Y-79323097D01*
X148503693Y-79099069D01*
X148551000Y-78861243D01*
X148551000Y-78618757D01*
X148503693Y-78380931D01*
X148410898Y-78156903D01*
X148276180Y-77955283D01*
X148104717Y-77783820D01*
X147903097Y-77649102D01*
X147679069Y-77556307D01*
X147441243Y-77509000D01*
X147198757Y-77509000D01*
X146960931Y-77556307D01*
X146736903Y-77649102D01*
X146535283Y-77783820D01*
X146363820Y-77955283D01*
X146229102Y-78156903D01*
X146197168Y-78234000D01*
X145902832Y-78234000D01*
X145870898Y-78156903D01*
X145736180Y-77955283D01*
X145564717Y-77783820D01*
X145363097Y-77649102D01*
X145139069Y-77556307D01*
X144901243Y-77509000D01*
X144658757Y-77509000D01*
X144420931Y-77556307D01*
X144196903Y-77649102D01*
X143995283Y-77783820D01*
X143823820Y-77955283D01*
X143689102Y-78156903D01*
X143596307Y-78380931D01*
X143549000Y-78618757D01*
X143549000Y-78861243D01*
X143596307Y-79099069D01*
X143689102Y-79323097D01*
X143823820Y-79524717D01*
X143995283Y-79696180D01*
X144196903Y-79830898D01*
X144274001Y-79862833D01*
X144274000Y-82141999D01*
X144173358Y-82242641D01*
X144087887Y-82370558D01*
X144029013Y-82512691D01*
X143999000Y-82663578D01*
X143999000Y-82805908D01*
X141712909Y-85092000D01*
X132996001Y-85092000D01*
X132895359Y-84991358D01*
X132767442Y-84905887D01*
X132625309Y-84847013D01*
X132474422Y-84817000D01*
X132320578Y-84817000D01*
X132169691Y-84847013D01*
X132027558Y-84905887D01*
X131899641Y-84991358D01*
X131790858Y-85100141D01*
X131705387Y-85228058D01*
X131646513Y-85370191D01*
X131616500Y-85521078D01*
X122326000Y-85521078D01*
X122326000Y-77890000D01*
X123227157Y-77890000D01*
X123227157Y-79590000D01*
X123234513Y-79664689D01*
X123256299Y-79736508D01*
X123291678Y-79802696D01*
X123339289Y-79860711D01*
X123397304Y-79908322D01*
X123463492Y-79943701D01*
X123535311Y-79965487D01*
X123610000Y-79972843D01*
X125310000Y-79972843D01*
X125384689Y-79965487D01*
X125456508Y-79943701D01*
X125522696Y-79908322D01*
X125580711Y-79860711D01*
X125628322Y-79802696D01*
X125663701Y-79736508D01*
X125685487Y-79664689D01*
X125692843Y-79590000D01*
X125692843Y-79246000D01*
X125877168Y-79246000D01*
X125909102Y-79323097D01*
X126043820Y-79524717D01*
X126215283Y-79696180D01*
X126416903Y-79830898D01*
X126640931Y-79923693D01*
X126878757Y-79971000D01*
X127121243Y-79971000D01*
X127359069Y-79923693D01*
X127583097Y-79830898D01*
X127784717Y-79696180D01*
X127956180Y-79524717D01*
X128090898Y-79323097D01*
X128122832Y-79246000D01*
X128417168Y-79246000D01*
X128449102Y-79323097D01*
X128583820Y-79524717D01*
X128755283Y-79696180D01*
X128956903Y-79830898D01*
X129180931Y-79923693D01*
X129418757Y-79971000D01*
X129661243Y-79971000D01*
X129899069Y-79923693D01*
X130123097Y-79830898D01*
X130324717Y-79696180D01*
X130496180Y-79524717D01*
X130630898Y-79323097D01*
X130662832Y-79246000D01*
X130957168Y-79246000D01*
X130989102Y-79323097D01*
X131123820Y-79524717D01*
X131295283Y-79696180D01*
X131496903Y-79830898D01*
X131720931Y-79923693D01*
X131958757Y-79971000D01*
X132201243Y-79971000D01*
X132439069Y-79923693D01*
X132663097Y-79830898D01*
X132864717Y-79696180D01*
X133036180Y-79524717D01*
X133170898Y-79323097D01*
X133202832Y-79246000D01*
X133497168Y-79246000D01*
X133529102Y-79323097D01*
X133663820Y-79524717D01*
X133835283Y-79696180D01*
X134036903Y-79830898D01*
X134260931Y-79923693D01*
X134498757Y-79971000D01*
X134741243Y-79971000D01*
X134979069Y-79923693D01*
X135203097Y-79830898D01*
X135404717Y-79696180D01*
X135576180Y-79524717D01*
X135710898Y-79323097D01*
X135742832Y-79246000D01*
X136037168Y-79246000D01*
X136069102Y-79323097D01*
X136203820Y-79524717D01*
X136375283Y-79696180D01*
X136576903Y-79830898D01*
X136800931Y-79923693D01*
X137038757Y-79971000D01*
X137281243Y-79971000D01*
X137519069Y-79923693D01*
X137743097Y-79830898D01*
X137944717Y-79696180D01*
X138116180Y-79524717D01*
X138250898Y-79323097D01*
X138282832Y-79246000D01*
X138577168Y-79246000D01*
X138609102Y-79323097D01*
X138743820Y-79524717D01*
X138915283Y-79696180D01*
X139116903Y-79830898D01*
X139340931Y-79923693D01*
X139578757Y-79971000D01*
X139821243Y-79971000D01*
X140059069Y-79923693D01*
X140283097Y-79830898D01*
X140484717Y-79696180D01*
X140656180Y-79524717D01*
X140790898Y-79323097D01*
X140822832Y-79246000D01*
X141117168Y-79246000D01*
X141149102Y-79323097D01*
X141283820Y-79524717D01*
X141455283Y-79696180D01*
X141656903Y-79830898D01*
X141880931Y-79923693D01*
X142118757Y-79971000D01*
X142361243Y-79971000D01*
X142599069Y-79923693D01*
X142823097Y-79830898D01*
X143024717Y-79696180D01*
X143196180Y-79524717D01*
X143330898Y-79323097D01*
X143423693Y-79099069D01*
X143471000Y-78861243D01*
X143471000Y-78618757D01*
X143423693Y-78380931D01*
X143330898Y-78156903D01*
X143196180Y-77955283D01*
X143024717Y-77783820D01*
X142823097Y-77649102D01*
X142599069Y-77556307D01*
X142361243Y-77509000D01*
X142118757Y-77509000D01*
X141880931Y-77556307D01*
X141656903Y-77649102D01*
X141455283Y-77783820D01*
X141283820Y-77955283D01*
X141149102Y-78156903D01*
X141117168Y-78234000D01*
X140822832Y-78234000D01*
X140790898Y-78156903D01*
X140656180Y-77955283D01*
X140484717Y-77783820D01*
X140283097Y-77649102D01*
X140059069Y-77556307D01*
X139821243Y-77509000D01*
X139578757Y-77509000D01*
X139340931Y-77556307D01*
X139116903Y-77649102D01*
X138915283Y-77783820D01*
X138743820Y-77955283D01*
X138609102Y-78156903D01*
X138577168Y-78234000D01*
X138282832Y-78234000D01*
X138250898Y-78156903D01*
X138116180Y-77955283D01*
X137944717Y-77783820D01*
X137743097Y-77649102D01*
X137519069Y-77556307D01*
X137281243Y-77509000D01*
X137038757Y-77509000D01*
X136800931Y-77556307D01*
X136576903Y-77649102D01*
X136375283Y-77783820D01*
X136203820Y-77955283D01*
X136069102Y-78156903D01*
X136037168Y-78234000D01*
X135742832Y-78234000D01*
X135710898Y-78156903D01*
X135576180Y-77955283D01*
X135404717Y-77783820D01*
X135203097Y-77649102D01*
X134979069Y-77556307D01*
X134741243Y-77509000D01*
X134498757Y-77509000D01*
X134260931Y-77556307D01*
X134036903Y-77649102D01*
X133835283Y-77783820D01*
X133663820Y-77955283D01*
X133529102Y-78156903D01*
X133497168Y-78234000D01*
X133202832Y-78234000D01*
X133170898Y-78156903D01*
X133036180Y-77955283D01*
X132864717Y-77783820D01*
X132663097Y-77649102D01*
X132439069Y-77556307D01*
X132201243Y-77509000D01*
X131958757Y-77509000D01*
X131720931Y-77556307D01*
X131496903Y-77649102D01*
X131295283Y-77783820D01*
X131123820Y-77955283D01*
X130989102Y-78156903D01*
X130957168Y-78234000D01*
X130662832Y-78234000D01*
X130630898Y-78156903D01*
X130496180Y-77955283D01*
X130324717Y-77783820D01*
X130123097Y-77649102D01*
X129899069Y-77556307D01*
X129661243Y-77509000D01*
X129418757Y-77509000D01*
X129180931Y-77556307D01*
X128956903Y-77649102D01*
X128755283Y-77783820D01*
X128583820Y-77955283D01*
X128449102Y-78156903D01*
X128417168Y-78234000D01*
X128122832Y-78234000D01*
X128090898Y-78156903D01*
X127956180Y-77955283D01*
X127784717Y-77783820D01*
X127583097Y-77649102D01*
X127359069Y-77556307D01*
X127121243Y-77509000D01*
X126878757Y-77509000D01*
X126640931Y-77556307D01*
X126416903Y-77649102D01*
X126215283Y-77783820D01*
X126043820Y-77955283D01*
X125909102Y-78156903D01*
X125877168Y-78234000D01*
X125692843Y-78234000D01*
X125692843Y-77890000D01*
X125685487Y-77815311D01*
X125663701Y-77743492D01*
X125628322Y-77677304D01*
X125580711Y-77619289D01*
X125522696Y-77571678D01*
X125456508Y-77536299D01*
X125384689Y-77514513D01*
X125310000Y-77507157D01*
X123610000Y-77507157D01*
X123535311Y-77514513D01*
X123463492Y-77536299D01*
X123397304Y-77571678D01*
X123339289Y-77619289D01*
X123291678Y-77677304D01*
X123256299Y-77743492D01*
X123234513Y-77815311D01*
X123227157Y-77890000D01*
X122326000Y-77890000D01*
X122326000Y-77489854D01*
X122344364Y-77302559D01*
X122392992Y-77141499D01*
X122471979Y-76992946D01*
X122578310Y-76862570D01*
X122707946Y-76755326D01*
X122855942Y-76675305D01*
X123016661Y-76625554D01*
X123202707Y-76606000D01*
X148570146Y-76606000D01*
X148757441Y-76624364D01*
G37*
G04 #@! TD.AperFunction*
M02*
